<svg id="Layer_1" data-name="Layer 1" xmlns="http://www.w3.org/2000/svg" viewBox="0 0 446.61 65.1"><defs><style>.cls-1,.cls-2{fill:#13110c;}.cls-2{fill-rule:evenodd;}</style></defs><path class="cls-1" d="M409.59,188.26l-16.51,13.42h10.77v43.65l5.74-4.59V188.26Z" transform="translate(-187.89 -180.23)"/><path class="cls-1" d="M414.31,236.81,431.08,223h-11V180.36l-5.7,4v52.48Z" transform="translate(-187.89 -180.23)"/><path class="cls-1" d="M622,196.07a23,23,0,0,1,4.1,2.52l5.92-11.3a55.87,55.87,0,0,0-10.73-4.9,39.53,39.53,0,0,0-13.33-2.16,34.17,34.17,0,0,0-12.67,2.29,21.1,21.1,0,0,0-9.13,6.71,18,18,0,0,0-3.31,11.08c0,4.94,1.54,8.74,4.68,11.38s8.07,4.73,14.61,6.4c5.25,1.37,9.44,2.61,12.66,3.76s4.9,2.86,4.9,5.34c0,3.7-3.49,5.6-10.5,5.6a38.6,38.6,0,0,1-9.93-1.23,39.67,39.67,0,0,1-8.21-3.09,21.92,21.92,0,0,1-4.9-3.31l-6.18,12A50.12,50.12,0,0,0,593.54,243,55.62,55.62,0,0,0,609,245.19a42.07,42.07,0,0,0,12.53-1.81,20.28,20.28,0,0,0,9.36-6.17c2.43-2.87,3.66-6.71,3.66-11.39a15,15,0,0,0-2.74-9.36,17.89,17.89,0,0,0-7.63-5.82,73.37,73.37,0,0,0-11.65-3.89,118.76,118.76,0,0,1-11.65-3.31c-2.61-1-3.89-2.65-3.89-5,0-4,3.58-6,10.73-6a27.1,27.1,0,0,1,7.76,1.15A34.32,34.32,0,0,1,622,196.07Z" transform="translate(-187.89 -180.23)"/><path class="cls-2" d="M502,244.88a35,35,0,0,1-13.68-2.6A33.37,33.37,0,0,1,477.69,235a34,34,0,0,1-6.84-10.51,31.21,31.21,0,0,1-2.39-12A30.09,30.09,0,0,1,471,200.44,32.32,32.32,0,0,1,478,190.16a33.5,33.5,0,0,1,24.19-9.8,32.15,32.15,0,0,1,13.68,2.87,31.52,31.52,0,0,1,10.5,7.41A32.27,32.27,0,0,1,533.25,201a31,31,0,0,1,2.39,11.88A30.09,30.09,0,0,1,533.12,225a33.53,33.53,0,0,1-7.06,10.28,32.94,32.94,0,0,1-10.59,7.07A35.86,35.86,0,0,1,502,244.88Zm-19.59-32.26a21.13,21.13,0,0,0,2.38,9.8,19.61,19.61,0,0,0,6.71,7.41,19.17,19.17,0,0,0,10.59,2.87,18.19,18.19,0,0,0,10.59-2.95,20.61,20.61,0,0,0,6.62-7.64,22,22,0,0,0,2.3-9.58,20.67,20.67,0,0,0-2.39-9.71A19.22,19.22,0,0,0,502,192.67a18.72,18.72,0,0,0-10.72,3,20.1,20.1,0,0,0-6.62,7.55A20.94,20.94,0,0,0,482.37,212.62Z" transform="translate(-187.89 -180.23)"/><path class="cls-2" d="M187.89,244.44l27.85-63.77H227l27.72,63.77H240.15l-6.4-15H209l-6.4,15Zm33.55-47-9.36,20.08h18.36Z" transform="translate(-187.89 -180.23)"/><path class="cls-1" d="M308.65,180.67l17.56,22.6,17.57-22.6H358.7l-25.2,32.26,24.4,31.47h-15l-16.77-21.67L309.53,244.4H294.35l24.54-31.47-25.34-32.26Z" transform="translate(-187.89 -180.23)"/></svg>