<svg id="Layer_1" data-name="Layer 1" xmlns="http://www.w3.org/2000/svg" viewBox="0 0 583.23 302.88"><defs><style>.cls-1{fill:#010101;}</style></defs><path class="cls-1" d="M486.8,294.86q0-15.76-26-15.76-24.9,0-24.9,16.4,0,15.92,27.1,15.92,23.81,0,23.81-16.55Zm-9.3-119c0-.29,0-.63,0-1a26.33,26.33,0,0,0-4.78-15.19l.06.08a16.3,16.3,0,0,0-13-6.49c-.36,0-.71,0-1.07,0h0q-19.54,0-19.55,22.86,0,21.28,19.55,21.28,18.74,0,18.74-21.59Zm42.37-51.07v31.85q-5.64,1.89-12.45,3.46a37.07,37.07,0,0,1,2.52,13.22v0c0,.42,0,.9,0,1.39a52,52,0,0,1-11.6,32.84l.08-.09a50.49,50.49,0,0,1-30.78,17.69l-.3,0a18.3,18.3,0,0,0-9.44,4.27l0,0a12.16,12.16,0,0,0-3.11,8.15,8.84,8.84,0,0,0,.05,1v.19a10.47,10.47,0,0,0,3.54,7.87h0a24.66,24.66,0,0,0,9,5l.18,0q5.58,1.81,12.37,3.46t13.56,4a60.46,60.46,0,0,1,12.62,6.06l-.25-.14a26.89,26.89,0,0,1,9.08,9.94l.07.14a31.74,31.74,0,0,1,3.56,14.7c0,.29,0,.57,0,.87v-.05q0,47.94-57.15,47.95h-.54a102,102,0,0,1-20.6-2.09l.66.12a69.74,69.74,0,0,1-18.67-6.64l.39.19A34.75,34.75,0,0,1,409,317.51l-.08-.16a37.49,37.49,0,0,1-5.14-19.06c0-.36,0-.71,0-1.06v0q0-26,28.69-35.47v-.64a21.7,21.7,0,0,1-10.6-18.62c0-.44,0-.87,0-1.3v.06q0-17.18,9.94-21.6v-.63a34.78,34.78,0,0,1-18.74-16.91l-.1-.2a52.42,52.42,0,0,1-7.53-26v-.06c0-.39,0-.84,0-1.3a48.69,48.69,0,0,1,15-35.19h0a50.85,50.85,0,0,1,35.74-14.61l1.38,0h.29a55.31,55.31,0,0,1,28,7.56l-.26-.14a95,95,0,0,0,35-7.67l-.62.24ZM570,263.64H535q.65-7.08.64-21.11v-96q0-14.82-.64-20.17h35q-.63,5.21-.63,19.55v96.64q0,14,.63,21.12Zm94.74-35v30.94a55.46,55.46,0,0,1-25.64,6.18c-.62,0-1.26,0-1.88,0h-.91a41.19,41.19,0,0,1-16.12-3.27l.27.1a29.86,29.86,0,0,1-11-7.85l0,0a34.32,34.32,0,0,1-6.17-12.06l-.06-.24a70.48,70.48,0,0,1-2.89-14.2l0-.31q-.63-6.94-.63-16.23V156.28h.3v-.63c-.73,0-1.73-.06-3-.17s-2.19-.16-2.82-.16a63.08,63.08,0,0,0-9.69,1l.39-.06V126.31H600v-12c0-.39,0-.85,0-1.31a85.81,85.81,0,0,0-1-13.2l0,.48h35.79c-.64,6.32-1,13.65-1,21.08,0,1.73,0,3.46.06,5.18v-.26h26.93v30q-2.37,0-6.85-.31t-6.7-.3H633.91v57.53q0,20.65,13.71,20.65h.43a29.44,29.44,0,0,0,16.85-5.26l-.09.06ZM574,79.36v.27a23.14,23.14,0,0,1-6.17,15.76h0A19.56,19.56,0,0,1,553,102.24h-.55a20.14,20.14,0,0,1-15.15-6.84l0,0a22.86,22.86,0,0,1-6.31-15.79v-.23h0V79.1a23.45,23.45,0,0,1,6.24-16h0A20,20,0,0,1,552.3,56.2H553a19.19,19.19,0,0,1,14.85,7l0,0A23.89,23.89,0,0,1,574,79.17v.22Z" transform="translate(-81.67 -56.2)"/><path class="cls-1" d="M330.94,186.28l-76.47-76.47a56.51,56.51,0,0,0-76.8-2.33l31.26,31.25a20.79,20.79,0,0,1,27.76,20v1a20.8,20.8,0,0,1-1.33,6.32l40.73,39.89a19.63,19.63,0,0,1,6.15-1.33,21.62,21.62,0,1,1-21.61,21.61h0A19.2,19.2,0,0,1,262,220l-37.41-37.4v86.94a21.3,21.3,0,0,1,12.14,19.12,21.61,21.61,0,1,1-43.22,0,21.08,21.08,0,0,1,11.13-18.45V177.47a21.13,21.13,0,0,1-11.13-17.79,19.08,19.08,0,0,1,1.33-6.15l-31.59-31.59-65,64.34a56.18,56.18,0,0,0-.16,79.46l.16.17h0l76.47,76.63a56.19,56.19,0,0,0,79.46.17l.17-.17h0l76.63-76.47a56.18,56.18,0,0,0,.17-79.46l-.17-.17Z" transform="translate(-81.67 -56.2)"/></svg>