<svg id="Layer_1" data-name="Layer 1" xmlns="http://www.w3.org/2000/svg" viewBox="0 0 369.2 139.88"><defs><style>.cls-1{fill:#13110c;}.cls-2{font-size:21.73px;fill:#12100b;font-family:Roboto-Black, Roboto;font-weight:800;}</style></defs><path class="cls-1" d="M289.6,230.66c-1.6-.2-2.72-.43-3.84-.47-7.73-.25-7.72-.24-6-7.83,1-4.36,2-8.71,3-13.07.64-3,1.95-4.48,5.39-4.44,14,.19,27.95.17,41.91,0,3.56,0,4.46,1.41,3.77,4.51-1.3,5.81-2.4,11.69-4.14,17.38-.44,1.46-3,3.33-4.49,3.21-4.27-.33-5.67,1.63-6.81,5.32-3.71,12-8.89,23.23-18.13,32.13-12.25,11.79-37.08,15.8-51.73,8.09-13.11-6.9-19.14-18.92-20.52-32.8-2.72-27.24,2.86-52.93,18.71-75.57,12.44-17.77,29.72-26.09,51.69-22.17,15,2.67,24.55,14.08,26.48,30.87.39,3.46.66,6.93,1,10.39.3,3.06-1.18,4.1-4.13,4.05q-11.47-.17-22.95,0c-2.79,0-4.55-.61-4.3-3.84a9,9,0,0,0-.37-2.45c-.89-4.44-1.64-9.23-6.87-10.52-5.79-1.44-10.84,1-13.81,5.77a124.23,124.23,0,0,0-10.9,21,77,77,0,0,0-4.5,37.14c1.41,11.79,10.85,16.57,20.77,10.12C284.79,243.68,287.94,237.79,289.6,230.66Z" transform="translate(-227.38 -143.62)"/><path class="cls-1" d="M392.9,277.33c1-2.6,1.45-4.27,2.16-5.85q27.13-60.29,54.26-120.57c1.52-3.4,3.26-5.1,7.35-5,10.8.34,21.62.24,32.43,0,3.92-.07,5.58.84,5.57,5.22q-.26,60.38-.07,120.73c0,4-1.07,5.66-5.34,5.49-7.47-.3-15-.24-22.44,0-3.57.1-4.86-1.23-4.47-4.64.29-2.47.35-5,.69-7.43.4-2.9-.42-4.32-3.66-4.27-8.14.14-16.3-.08-24.44.18a5.76,5.76,0,0,0-4,2.7,35,35,0,0,0-3.66,8.68c-1,4.08-3.43,4.91-7.27,4.79C411.31,277.15,402.56,277.33,392.9,277.33Zm73.51-96.67-1.6-.38c-7,17.34-13.95,34.68-21.46,53.36,6.75,0,12.35.23,17.9-.19,1.1-.09,2.7-2.6,2.89-4.13.55-4.6.52-9.27.73-13.92Q465.64,198,466.41,180.66Z" transform="translate(-227.38 -143.62)"/><path class="cls-1" d="M518.45,252.34c3.19,1.77,6.31,3.7,9.6,5.26s4.61,3.08,3.63,7.19c-2.95,12.48-2.69,12.54-15.56,12.54h-12c-6.05,0-6.09,0-4.81-5.66q8.57-37.5,17.16-75c3.55-15.48,7.06-31,10.83-46.38.4-1.63,2.49-4.08,3.75-4.05,12.4.3,25-.18,37.15,2,18.28,3.22,27.75,16.25,28.31,35,.54,17.94-3.66,34.22-15.85,47.83-10.32,11.51-23.44,17.73-38.73,19.09-6.6.59-13.29.18-19.94.3a16.2,16.2,0,0,0-3.15.7C518.73,251.51,518.59,251.92,518.45,252.34Zm23-30.83c5.68,1.07,10-.5,13.36-3.95,9.88-10,12.59-22.22,10.26-35.69-1-5.76-4.21-8.16-10.11-8.33-5.15-.16-10.3-.09-15.46,0a16.52,16.52,0,0,0-3.46.81A35.46,35.46,0,0,0,546.13,181c3.17,1.43,3.82,3.32,3,6.65C546.44,198.75,544.05,209.89,541.43,221.51Z" transform="translate(-227.38 -143.62)"/><path class="cls-1" d="M414.71,184.42c-9.42,0-18.2.14-27-.18-1.12,0-2.9-2.38-3.1-3.82-1-7.54-4.37-11-10.14-9.93s-9.29,6.9-6.63,13.09c2.42,5.63,6.31,10.73,10.14,15.61,4,5.07,9.17,9.22,13,14.41,13,17.75,11.06,43.14-4.8,56.45a39.33,39.33,0,0,1-17.66,8.25c-14.18,2.51-28.34,2.19-39.16-9.73-7.23-7.95-8.31-17.8-7.64-27.95.06-.87,2.27-2.25,3.5-2.28,7.64-.21,15.29-.07,22.94-.12,2.65,0,4.11.84,3.76,3.78a12.71,12.71,0,0,0,.14,3.48c.83,4.91,3.65,7.51,7.86,7.34s7.17-3.34,7.65-8.21A18.73,18.73,0,0,0,362.64,230c-5.67-6.5-11.82-12.61-17.18-19.35-13.3-16.7-13.36-37.52-.22-53.46a35.8,35.8,0,0,1,23.08-12.58c12.87-1.85,25.72-1.93,36.18,7.6C413.78,160.65,415.31,171.82,414.71,184.42Z" transform="translate(-227.38 -143.62)"/><text class="cls-2" transform="translate(336.37 133.99) scale(1.04 1)">®</text></svg>