<svg id="Layer_1" data-name="Layer 1" xmlns="http://www.w3.org/2000/svg" viewBox="0 0 580.6 137.4"><defs><style>.cls-1{fill:#13110c;}.cls-2{fill:#fff;}</style></defs><circle class="cls-1" cx="68.7" cy="68.7" r="68.7"/><path class="cls-2" d="M207.9,204.4c-4.3-19.2-14.6-25.5-15.7-27.9a28.8,28.8,0,0,1-2.4-4.7c-.1,0-.1-.1-.1-.2-.1,1.7-.2,2.3-1.8,4.1s-15.2,12.6-16.3,34.3,14.7,32.4,16.8,34h.2c0,.1.7,4.8,1.2,9.9h1.6a93.8,93.8,0,0,1,1.8-10.6h.1a26.1,26.1,0,0,0,2.7-2.2h.1a39,39,0,0,0,12.5-29,47.7,47.7,0,0,0-.7-7.6Zm-18.3,28.1s0-28.4.9-28.4,1.7,36.7,1.7,36.7S189.6,234.7,189.6,232.5Z" transform="translate(-120.9 -144.1)"/><path class="cls-1" d="M694.1,230.5a7.4,7.4,0,1,1,0-14.7,7.3,7.3,0,0,1,7.3,7.3,7.2,7.2,0,0,1-7,7.4h-.3m0-14a6.6,6.6,0,0,0-6.8,6.6,6.9,6.9,0,0,0,6.7,6.8,6.7,6.7,0,0,0,6.7-6.7h0a6.5,6.5,0,0,0-6.4-6.7h-.2m1.7,11.3-1.9-4.1h-1.5v4.1h-1.1v-9.3H694c2.1,0,2.9.9,2.9,2.6a2.3,2.3,0,0,1-1.8,2.5l2,4.2Zm-3.3-5h1.6c1.3,0,1.8-.5,1.8-1.7s-.5-1.6-2-1.6h-1.4Z" transform="translate(-120.9 -144.1)"/><path class="cls-1" d="M584.5,223.8c2,1.6,6,2.3,9.5,2.3a18.9,18.9,0,0,0,13.4-4.8c4.4-4.1,7.5-10.2,7.5-20.1s-3.7-17.1-11-21.6c-4.2-2.7-9.6-3.7-15.8-3.7a11.9,11.9,0,0,0-4.6.6,3,3,0,0,0-.9,1.3c-.2,1.7-.2,14.5-.2,22.1s0,18.7.2,20,.7,3.1,1.9,3.9m-18.9-52.1,10.6.3c5.3,0,9-.3,18.9-.3s15.4,2.2,20.4,6.6,9.3,12.5,9.3,21.4c0,12.7-5.7,20-11.5,24.1s-13.3,6.8-24,6.8l-23.6-.3h-.2c-.3-.8.7-3.7,1.4-3.8a11.5,11.5,0,0,0,3.8-.7c1.7-.7,2.1-1.6,2.3-4.7.3-5.8.2-12.8.2-20.6,0-5.7.1-16.6-.1-20.1s-1.5-3.6-4-4.2a30.8,30.8,0,0,0-5.3-.8c-.2-.6,1.3-3.2,1.8-3.7" transform="translate(-120.9 -144.1)"/><path class="cls-1" d="M648.3,176.5c-.4,0-.8,1-.8,1.5-.1,3.3-.2,12.1-.2,18.2a.5.5,0,0,0,.5.5l6.8.2a17.3,17.3,0,0,0,6.8-1c3-1.5,4.4-4.8,4.4-8.4,0-8.1-5.6-11.2-14.1-11.2a19.4,19.4,0,0,0-3.4.2m21.5,37.4c0-8.2-6-12.9-17.1-12.9a41.6,41.6,0,0,0-4.9.1c-.3.1-.5.3-.5.5,0,5.9-.1,15.3.2,19.1a6.1,6.1,0,0,0,2.7,4.5c1.5.8,4.9,1,7.3,1,6.5,0,12.3-3.6,12.3-12.3m-38.6-42c.9,0,3.4.2,9.8.2h16.9c7.3,0,17.3,2.6,17.3,13.5,0,5.3-3.8,9.6-8.7,11.7q-.4.2,0,.3c7,1.8,13.2,6.1,13.2,14.4s-5,13.1-12.3,16.3c-4.5,2-10,2.6-15.6,2.6s-15.7-.4-22-.4c-.7-.2.6-3.2,1.2-3.7a21.4,21.4,0,0,0,4.3-.7c2.2-.5,2.5-1.3,2.8-4.6s.2-13.4.2-20.8c0-10.1.1-16.9,0-20.3s-1.1-3.5-2.9-3.9l-5.7-.9c-.4-.5,1-3.3,1.5-3.6" transform="translate(-120.9 -144.1)"/><path class="cls-1" d="M291.2,230.5a5.8,5.8,0,0,1-.3-1.9,2.4,2.4,0,0,1,.3-1.2l3.7-.8c1.6-.4,2.3-1.3,2.4-3.5.2-5,.3-14.5.2-21.2h0a2.7,2.7,0,0,0-.9-2.4,17,17,0,0,0-5-2.2c-.8-.3-1.3-.7-1.3-1.2a1.9,1.9,0,0,1,1.6-1.3,57.5,57.5,0,0,0,12.8-3.3,1.7,1.7,0,0,1,.3,1.4v.9a28.5,28.5,0,0,0-.2,3.1.8.8,0,0,0,.8.6l.4-.2c5.4-4.2,10.2-5.7,12.7-5.7,4,0,7.2,1.9,9.7,5.9a.6.6,0,0,0,1,0c5-3.7,9.9-5.9,13.2-5.9,7.7,0,12.3,5.8,12.3,15.5v9.6c0,2.9-.1,5.6-.1,7.5a2.8,2.8,0,0,0,1.6,2,19.6,19.6,0,0,0,4.8,1.2h.1a7,7,0,0,1-.5,3.2h-2.1l-6.4-.2c-5.1,0-7.8.1-10.4.3a6.9,6.9,0,0,1,0-3.2l3.1-.7c1.7-.5,2.1-1.3,2.2-3.5s.4-15.1-.1-18.4a8.4,8.4,0,0,0-8.6-7.3,14.8,14.8,0,0,0-8.5,3.3,1.1,1.1,0,0,0-.3.8h0a43.8,43.8,0,0,1,.3,6.9v15.5a2.5,2.5,0,0,0,2,2.6l1.3.3a13.3,13.3,0,0,0,2.6.5,4.9,4.9,0,0,1,0,2.4,1.9,1.9,0,0,1-.3.8l-10.1-.2h-9a3,3,0,0,1-.2-1.6,2,2,0,0,1,.3-1.5l1.1-.3,2.7-.5c1.4-.4,1.9-1.2,2-3,.3-4.1.5-16.2-.1-19.2-1-4.8-3.8-7.3-8.2-7.3a15.4,15.4,0,0,0-8.5,3.3,2.7,2.7,0,0,0-.8,1.9v5c0,6,0,13.5.1,16.8a2.7,2.7,0,0,0,2.3,2.6l2,.4,1.5.2a6.9,6.9,0,0,1-.2,3.2h-3l-6.5-.2-6.7.2h-3.1" transform="translate(-120.9 -144.1)"/><path class="cls-1" d="M386.4,195.5a8.3,8.3,0,0,0-4.6,1.2c-3.2,2-4.9,6-4.9,11.9,0,11,5.5,18.7,13.4,18.7a8.6,8.6,0,0,0,5.7-2.1c2.5-1.9,3.8-6,3.8-11.6,0-10.9-5.4-18.1-13.4-18.1m1.5,35.9c-14.3,0-19.3-10.5-19.3-20.3a18,18,0,0,1,8.3-15.8,24.9,24.9,0,0,1,12.8-3.8c10.9,0,18.4,7.8,18.4,19,0,7.6-3,13.6-8.7,17.4-2.8,1.6-7.6,3.5-11.5,3.5" transform="translate(-120.9 -144.1)"/><path class="cls-1" d="M531.4,195.5a8.3,8.3,0,0,0-4.6,1.2c-3.3,2-4.9,6-4.9,11.9,0,11,5.5,18.7,13.4,18.7a8.5,8.5,0,0,0,5.8-2.1c2.4-1.9,3.7-6,3.7-11.6,0-10.9-5.4-18.1-13.4-18.1m1.5,35.9c-14.3,0-19.3-10.5-19.3-20.3a18,18,0,0,1,8.3-15.8,25.2,25.2,0,0,1,12.8-3.8c10.9,0,18.4,7.8,18.4,19,0,7.6-3,13.6-8.7,17.3-2.8,1.7-7.6,3.6-11.5,3.6" transform="translate(-120.9 -144.1)"/><path class="cls-1" d="M483.4,195.1c-4.4,0-7.2,3.5-7.2,8.8s2.4,11.8,9.3,11.8a7.2,7.2,0,0,0,4.4-1.7c1.6-1.5,2.6-4.5,2.6-7.7,0-7-3.4-11.2-9.1-11.2m-.5,37a7.4,7.4,0,0,0-3.6.9c-3.5,2.2-5.1,4.4-5.1,7a7.9,7.9,0,0,0,3,6.1c2.4,2,5.7,3,10,3,8.6,0,12.4-4.6,12.4-9.1s-1.6-5.3-4.9-6.5-6.7-1.4-11.8-1.4m.6,21.8c-5.2,0-8.8-1.1-12-3.5a11.5,11.5,0,0,1-4.4-8.3,5.9,5.9,0,0,1,1.7-4.2c.8-1.1,2.9-3,7.7-6.2a.5.5,0,0,0,.2-.4c0-.2-.1-.4-.3-.4-3.9-1.5-5.1-4-5.5-5.3v-.2c-.1-.6-.2-1.1.5-1.6l2.4-1.4c1.3-.8,2.6-1.6,3.8-2.5a.7.7,0,0,0,0-.9h-.2c-5.8-1.9-8.7-6.3-8.7-12.9a12.7,12.7,0,0,1,5.4-10.5,24.8,24.8,0,0,1,12-4.1h.2c3.9.1,6.1,1,9.2,2.1a13.9,13.9,0,0,0,5.4.8c3.2,0,4.6-1,5.8-2.2a10.5,10.5,0,0,1,.4,1.7,6.8,6.8,0,0,1-1.1,3.9,4.8,4.8,0,0,1-3.6,1.5h-.5a8.5,8.5,0,0,1-2.2-.4l-.4.2c-.1.1,0,.3.1.6h0a22.5,22.5,0,0,1,.6,3.6c0,6.9-2.8,9.9-5.7,12.1a18.3,18.3,0,0,1-9.8,3.8h-2.3c-.6.2-2.3,1-2.3,2.5s.8,2.7,4.4,3h2.3c4.8.4,10.7.8,13.5,1.7a9.4,9.4,0,0,1,6.2,9c0,6.2-4.4,12-11.7,15.6a25.5,25.5,0,0,1-11.2,2.5" transform="translate(-120.9 -144.1)"/><path class="cls-1" d="M461.6,227.2a16.6,16.6,0,0,1-5.4-1.4,3.1,3.1,0,0,1-.6-1.3c-.2-2.9-.2-11.4-.2-16.9s-.8-8.4-2.7-11.2a11.3,11.3,0,0,0-9.6-5.1c-3.7,0-8.7,2.5-12.7,6-.1.1-.8.7-.7-.2s.1-2.8.2-4a2.3,2.3,0,0,0-.6-1.8c-2.7,1.4-10.2,3.1-12.9,3.4s-2.5,2.3-.4,3h0a16.7,16.7,0,0,1,4.9,2.2,2.4,2.4,0,0,1,.8,2.3c.1,6.3.1,15.9-.2,21.2-.1,2.1-.7,2.8-2.2,3.2h.1l-3.5.7a5.9,5.9,0,0,0,0,3.7l9.8-.2c5.5,0,8.3.2,9.8.2s.7-3.2.3-3.7a26.3,26.3,0,0,1-3.9-.6c-1.5-.4-1.8-1.1-1.9-2.8-.2-4.4-.2-13.8-.2-20.1,0-1.8.4-2.7,1-3.1a12.5,12.5,0,0,1,7.8-2.9,9,9,0,0,1,5.8,2,8.5,8.5,0,0,1,2.7,5.3c.3,3.6.2,10.7.2,16.9,0,3.3-.2,4.2-1.5,4.6a19.9,19.9,0,0,1-3.8.7c-.6.6-.4,3.2,0,3.8,2.4,0,5.3-.3,9.4-.3s8.6.3,9.9.3a5.6,5.6,0,0,0,.4-3.8" transform="translate(-120.9 -144.1)"/></svg>