<svg id="Layer_1" data-name="Layer 1" xmlns="http://www.w3.org/2000/svg" viewBox="0 0 540.45 263.69"><defs><style>.cls-1{fill:#13110c;}</style></defs><path class="cls-1" d="M443.57,90.55c-5.08-2.7-10.08-5.56-15.1-8.38A11.78,11.78,0,0,1,427,80.93h-2.14a18.2,18.2,0,0,0-.77,3.7c-.05,14.65,0,29.29,0,43.93,0,2.85-.78,3.29-3.28,1.86q-3-1.74-6-3.49a4,4,0,0,0-4.32-.08L380,144.38a3.94,3.94,0,0,0-2.05,3.66q0,17.28,0,34.56a4.32,4.32,0,0,0,2.34,4.05c9.72,5.57,19.45,11.13,29.1,16.83a5.47,5.47,0,0,0,6.2-.06q14.1-8.26,28.3-16.33a5.26,5.26,0,0,0,3-5.17q-.11-42.93,0-85.85A5.52,5.52,0,0,0,443.57,90.55ZM424,165.45c0,1.69,0,3.39,0,5.08a2.25,2.25,0,0,1-1.22,2.2q-4.59,2.61-9.16,5.27a2.3,2.3,0,0,1-2.52,0c-3.05-1.77-6.14-3.47-9.13-5.33a2.88,2.88,0,0,1-1.15-2c-.12-3.43-.05-6.87-.07-10.3a2.37,2.37,0,0,1,1.32-2.28c3.11-1.76,6.16-3.6,9.3-5.3a2.49,2.49,0,0,1,2.07,0c3.17,1.73,6.31,3.53,9.37,5.45a3,3,0,0,1,1.13,2c.16,1.73.05,3.48.05,5.22Z" transform="translate(-141.8 -80.93)"/><path class="cls-1" d="M276.25,143.16q-14.7-8.41-29.36-16.89a5,5,0,0,0-5.52.06c-6.31,3.7-12.73,7.23-19,11-4.27,2.56-9,4.45-12.66,7.9v50.09c1.42,1,2.7.75,4.17-.12,5.18-3.07,10.4-6.09,15.7-9a5.55,5.55,0,0,0,3.18-5.5c-.09-6.61,0-13.22-.07-19.82a4.77,4.77,0,0,1,2.79-4.72c2.12-1.15,4.22-2.34,6.27-3.61a4.24,4.24,0,0,1,4.78-.06c2.15,1.28,4.29,2.57,6.5,3.74a4.91,4.91,0,0,1,2.76,4.9c-.06,6.83,0,13.66,0,20.49a4.28,4.28,0,0,0,2.37,4.14c5.68,3.2,11.31,6.47,17,9.69,2.21,1.25,3.44.54,3.44-2q0-23.16,0-46.33A4.21,4.21,0,0,0,276.25,143.16Z" transform="translate(-141.8 -80.93)"/><path class="cls-1" d="M528.82,143.8c-9.9-5.79-19.83-11.53-29.74-17.3a4.35,4.35,0,0,0-4.78.07q-14.7,8.53-29.46,17a4.52,4.52,0,0,0-2.54,4.32q0,17.15,0,34.28a4.25,4.25,0,0,0,2.35,4q14.67,8.32,29.31,16.71a4.61,4.61,0,0,0,5,.1c3.76-2.14,7.57-4.21,11.35-6.31,2-1.12,4.07-2.23,6.08-3.39,1.75-1,1.75-2.55,0-3.65-.26-.17-.54-.31-.81-.47q-14.46-8.28-28.93-16.57a3.1,3.1,0,0,1-1.86-2.84q0-4.89,0-9.77a2.81,2.81,0,0,1,1.57-2.6c2.8-1.58,5.59-3.18,8.34-4.83a3,3,0,0,1,3.38,0c2.61,1.56,5.22,3.11,7.89,4.54a3.55,3.55,0,0,1,2.05,3.57c-.05,2.36,0,4.73,0,7.1,0,1.85,1.19,2.52,2.88,1.73a13.37,13.37,0,0,0,1.17-.65c3.17-1.83,6.39-3.58,9.49-5.52s6.94-3.31,9.51-6.32V145.76A18.7,18.7,0,0,0,528.82,143.8Z" transform="translate(-141.8 -80.93)"/><path class="cls-1" d="M613.63,148a6.74,6.74,0,0,0-3.63-6.35q-14-8-27.93-16.11a6.57,6.57,0,0,0-7.08,0q-14.12,8.19-28.26,16.32a6.09,6.09,0,0,0-3.32,5.66q0,16.49,0,33a6.12,6.12,0,0,0,3.18,5.65c2.42,1.42,4.84,2.85,7.31,4.19a12.86,12.86,0,0,0,7.63,1.93c3.07-.32,5.66-1.47,6.84-4.51a12.63,12.63,0,0,0,.85-4.38c.08-10.85,0-21.7.06-32.55,0-1-.29-1.52-1.39-1.42a9.57,9.57,0,0,1-2.14,0c-1.33-.16-1.77.33-1.76,1.71.06,8.43,0,16.87,0,25.31,0,2.19,0,4.38,0,6.56a3.69,3.69,0,0,1-4.22,3.91,9.07,9.07,0,0,1-3.26-1c-2.33-1.23-4.55-2.65-6.86-3.91a2,2,0,0,1-1.13-2q0-15.87,0-31.74a2.06,2.06,0,0,1,1.14-2.05q13.92-8,27.81-16a1.8,1.8,0,0,1,2.08,0q13.88,8.05,27.8,16A2,2,0,0,1,608.5,148q0,16,0,32a2,2,0,0,1-1.13,1.92q-13.92,8-27.8,16.05a1.79,1.79,0,0,1-2.09,0c-2.05-1.27-4.13-2.49-6.22-3.68a2.08,2.08,0,0,0-1.46-.34c-1.67.68-3.27,1.5-5.15,2.39l12,7.15h4.29l-.11-.07-.07-.09c.25-.18.48-.38.74-.54q14.25-8.22,28.51-16.43a6.72,6.72,0,0,0,3.62-6.36Q613.59,164,613.63,148Z" transform="translate(-141.8 -80.93)"/><path class="cls-1" d="M592.25,175a21.85,21.85,0,0,1-8.82.26c-2.22-.35-4.71-1-5.25-3.43-.6-2.73-2.14-3-4.3-2.68a2.35,2.35,0,0,1-.53,0c-1-.13-1.22.33-1.24,1.23a9.37,9.37,0,0,0,6.4,8.66,24.75,24.75,0,0,0,16,.52c3.68-1.1,6.51-3.17,7.15-7.38.74-4.84-1.2-8-5.61-9.13-3.37-.86-6.84-1.31-10.26-2a50.45,50.45,0,0,1-5-1.11,2.72,2.72,0,0,1-1.11-4.68,4.8,4.8,0,0,1,2.52-1.35,49.77,49.77,0,0,1,6-.34c3.75-.08,6.37,1.36,7.18,4.83a1.58,1.58,0,0,0,1,1,11.07,11.07,0,0,0,3.2,0c.44-.07,1.14-.73,1.13-1.1a9,9,0,0,0-6.48-8.71,66.54,66.54,0,0,0-7.77-1.45l0,.36a16.48,16.48,0,0,0-8.66,1.64,8.42,8.42,0,0,0-3.92,11,7.25,7.25,0,0,0,5.45,4.13c3.22.72,6.52,1.07,9.77,1.66a36.52,36.52,0,0,1,5.31,1.22c1.71.57,2.21,1.91,1.75,3.67C595.56,173.89,594,174.58,592.25,175Z" transform="translate(-141.8 -80.93)"/><path class="cls-1" d="M362.55,172.83v-7.24q-4.41-2.06-8.81-4.13,4.39,2.08,8.81,4.13c0-6.09.07-12.18,0-18.27a7.65,7.65,0,0,0-.92-2.4A14.28,14.28,0,0,0,360,143.6q-7.14-4.15-14.31-8.25c-1.55-.89-3.16-1.66-4.74-2.48a5.85,5.85,0,0,0-.69-.54c-2.44-1.43-4.89-2.84-7.34-4.26l-3.49-1.89h0l-.55-.2-1.87.22-6.45,3.61-5.32,3.1-5.63,3.24c-1.08.6-2.18,1.18-3.25,1.81q-5.24,3.06-10.45,6.16h0A3.06,3.06,0,0,0,294.1,147c-.05,2.53,0,5.07,0,7.61v18.21c0,3.35-.06,6.69,0,10a5.88,5.88,0,0,0,.56,1.74h0a8.53,8.53,0,0,0,1.42,1.34q15,8.72,30.1,17.36a8.76,8.76,0,0,0,2.52.57l5-2.46,5.9-3.43h0l3.52-2.05,1.57-.88,2.41-1.38,3.74-2.16c0-.42,0-.84-.07-1.26,0,.42,0,.84.07,1.26,1-.58,2-1.17,3-1.76,2.39-1.36,4.8-2.69,7.16-4.11a3,3,0,0,0,1.55-2.9Zm-58.54-4-4,6.95,4-6.95,1.56-2.43Zm16.29,19.35q-2.67-4.84-5.33-9.71l-5.61-10.19c-.45-.76-.9-1.53-1.36-2.29.46.76.91,1.52,1.36,2.29L315,178.45q2.67,4.86,5.33,9.71l4.54,8.32Zm36.25-34.35h0c-.4-.33-.88-.61-1.26-1C355.67,153.2,356.15,153.48,356.55,153.81Zm-4.31,7.78-1.36,1.83,1.36-1.83.74-.87c.54-1.06,1.07-2.12,1.6-3.18-.53,1.06-1.06,2.12-1.6,3.18Z" transform="translate(-141.8 -80.93)"/><path class="cls-1" d="M502.66,166.67V165.3l-1.67-.78,1.67.78c0-1.15,0-2.31,0-3.46a1.52,1.52,0,0,0-.17-.46,3.76,3.76,0,0,0-.31-.25l-2.71-1.56c-.29-.17-.6-.31-.9-.47l-.13-.1-1.39-.81-.66-.36h0l-.1,0-.36,0-1.22.68-1,.59-1.06.61-.62.35-2,1.16h0a.58.58,0,0,0-.35.55c0,.48,0,1,0,1.44v3.45c0,.63,0,1.27,0,1.9a1.07,1.07,0,0,0,.11.33h0a1.29,1.29,0,0,0,.27.25q2.83,1.65,5.7,3.29a1.47,1.47,0,0,0,.48.11l.95-.47,1.12-.65h0l.66-.38.3-.17.46-.26.71-.41c0-.08,0-.16,0-.24,0,.08,0,.16,0,.24l.56-.34,1.36-.77a.6.6,0,0,0,.29-.55Zm-11.09-.76-.77,1.32.77-1.32.29-.46Zm3.08,3.67-1-1.84-1.07-1.93-.26-.44.26.44,1.07,1.93c.33.61.67,1.22,1,1.84l.87,1.57Zm6.87-6.51h0l-.24-.18Zm-.81,1.47-.26.35.26-.35.14-.16.3-.61-.3.61Z" transform="translate(-141.8 -80.93)"/><path class="cls-1" d="M623.66,139.92a5.54,5.54,0,1,0,5.56,5.57A5.45,5.45,0,0,0,623.66,139.92Zm0,10.23a4.71,4.71,0,0,1-4.69-4.81,4.64,4.64,0,0,1,4.76-4.56,4.59,4.59,0,0,1,4.61,4.7A4.68,4.68,0,0,1,623.68,150.15Z" transform="translate(-141.8 -80.93)"/><path class="cls-1" d="M625.51,145.54c.07-.8.47-1.82.13-2.35-.95-1.49-2.54-.59-4-.81,0,2,0,3.72,0,5.49,0,.23.36.45.55.67.17-.24.45-.47.5-.74a9.8,9.8,0,0,0,0-1.53c1.7-.29,1.82-.24,1.85,1.21,0,1,.44,1.24,1.41.9-.23-1-.46-2-.68-2.92Zm-2.65-.56v-1.47h1.54C624.73,145,624.6,145.13,622.86,145Z" transform="translate(-141.8 -80.93)"/><path class="cls-1" d="M316,299.25v45l-6.3.38V227.45l6.17-.43v17l1.28.77c.49-.88,1-1.75,1.48-2.66,11.41-23.06,49.41-23.1,62.26,1.47,9.16,17.51,9,35.76.47,53.52a30,30,0,0,1-24.2,17.3,69.11,69.11,0,0,1-18.95-.18,26.19,26.19,0,0,1-20.74-15.64ZM315.27,270l.89.3c.46,4.48.62,9,1.42,13.42,2.69,14.84,12.2,23.92,26.42,25.56,14.69,1.69,27.62-5.55,33-19.34,5.79-14.78,5.36-29.62-2.42-43.66-6.13-11.06-16-15.47-28.55-14.89-11.76.55-20.44,6-25,16.58C318.12,254.91,317.14,262.67,315.27,270Z" transform="translate(-141.8 -80.93)"/><path class="cls-1" d="M149.24,271.44c-.06,20.73,10.24,35,26.74,37.57,16.89,2.61,27.19-4.06,36.58-24.6h5.15c.29.68.73,1.19.64,1.55-6.21,23.6-26.12,34.91-49.39,28-9.6-2.86-17.14-8.73-21.31-17.82-8.11-17.68-8-35.7,1.59-52.66s24.34-20,40.08-17.71c14.4,2.07,26,14.43,29.05,30.07.93,4.84,1,9.85,1.59,15.62Zm.94-6.28H211.8c.68-18.73-11.87-32.7-28.52-33.8C165.74,230.2,149.45,245.31,150.18,265.16Z" transform="translate(-141.8 -80.93)"/><path class="cls-1" d="M449.84,271.58c-.07,20.83,9.53,34.6,26,37.14,15.58,2.4,29.93-2.16,36.73-24.09l5.67-.35c.27.89.61,1.38.51,1.77-5,20.57-18.47,30.41-40,29.29-19.49-1-33-14.19-35.46-35.13-1.41-12.25-.52-24.31,5.6-35.5,7.75-14.16,21.47-21.11,38.64-19.35,14,1.45,26.45,12,30.29,26.67,1.57,6,1.78,12.36,2.75,19.55H449.84Zm.25-6.44h62.52c0-18.4-11.65-32.42-27.12-33.69C464.8,229.75,451,245.3,450.09,265.14Z" transform="translate(-141.8 -80.93)"/><path class="cls-1" d="M679.42,252.94l-6-.38c-2.83-15.26-9.79-21.21-25.07-20.95a49.78,49.78,0,0,0-15.52,2.44c-6,2.11-10.18,6.66-10.27,13.69s4.24,11.46,10.26,13.64c6.44,2.32,13.28,3.5,19.92,5.28,5.61,1.5,11.36,2.69,16.74,4.81,7.79,3.07,12,9.1,12.68,17.63.71,9.06-2.24,16.46-10.34,20.69-14.77,7.7-30.09,8.13-44.9.42-9.36-4.87-13.72-13.51-14-24.66h6c5.54,21.5,28.35,30.89,47.74,19.88,5.7-3.24,9.1-7.93,8.91-14.82-.18-6.7-3.91-11.08-9.71-13.21-6.66-2.44-13.7-3.83-20.52-5.88-6.55-2-13.28-3.59-19.47-6.38-13.56-6.12-14-28.67.73-35.51,13.19-6.13,26.82-6.56,39.92-.38C675.64,233.54,679.73,241.75,679.42,252.94Z" transform="translate(-141.8 -80.93)"/><path class="cls-1" d="M531.71,285.51l6.22-.35c1.38,10.34,6.31,17.75,15.69,21.54,10.66,4.31,21.33,3.59,31.59-1.26a15,15,0,0,0,9.09-14.65c-.12-6.63-3.63-11.24-9.5-13.36-6.92-2.49-14.22-3.91-21.3-6-6.06-1.78-12.27-3.32-18-5.85-7.84-3.44-11.07-10.11-11-18.62.1-8.35,4.1-14.35,11.39-17.63,12.65-5.69,25.85-6.21,38.55-.55,9.55,4.26,13.94,12.51,13.74,23.67l-5.94.35c-3-15.5-9.7-21.41-25-21.2a53.66,53.66,0,0,0-16.9,3.15c-5.9,2.09-9.25,7-9.08,13.59.17,6.32,3.83,10.58,9.44,12.51,7,2.41,14.27,3.83,21.37,5.87,6.07,1.75,12.26,3.33,18.07,5.76,13,5.45,15.28,27.48,2,36.53-12.18,8.27-36.45,8.54-48.47.08C536.1,303.81,532.86,297.52,531.71,285.51Z" transform="translate(-141.8 -80.93)"/><path class="cls-1" d="M265.36,268.12l33.9,45-8.53.63L260.92,273.4c-10.16,13.45-20,26.42-30.08,39.82h-8.36l33.71-45c-10.31-13.46-20.69-27-31.49-41.14h9.14l27.07,35.76L288,227.23h8.52Z" transform="translate(-141.8 -80.93)"/><path class="cls-1" d="M411.29,241.22c8.39-10.31,17-14.32,30.78-14.08.2,1.62.4,3.32.62,5.08-1,.44-1.72,1-2.4,1-15.45-.92-31.46,12.27-31.57,31.84-.07,13.79-.09,27.57-.14,41.36v6.7H402V227.41l6.49-.34v17.85l1.06.2C410.16,243.82,410.73,242.52,411.29,241.22Z" transform="translate(-141.8 -80.93)"/></svg>