<svg id="Layer_1" data-name="Layer 1" xmlns="http://www.w3.org/2000/svg" viewBox="0 0 481.25 265.12"><defs><style>.cls-1{fill:#13110c;}.cls-2{fill:#fff;stroke:#1d1d1b;stroke-miterlimit:10;stroke-width:3px;}</style></defs><path class="cls-1" d="M317.33,255.77a43.63,43.63,0,1,0-43.63-43.63A43.64,43.64,0,0,0,317.33,255.77ZM214.2,343a43.63,43.63,0,1,0-43.63-43.63A43.63,43.63,0,0,0,214.2,343Zm394,0a43.63,43.63,0,1,0-43.63-43.63A43.63,43.63,0,0,0,608.19,343Z" transform="translate(-170.57 -80.21)"/><path class="cls-2" d="M464.9,214c-1.4-14.58-2.11-26.71-13.27-35.24-14.15-10.8-30.17-3.79-49.9-10.91A43.86,43.86,0,0,1,368,125.4c0-24.13,19.89-43.69,44.41-43.69A44.45,44.45,0,0,1,453,107.81c10.53,20,3.69,40.36,16.92,50.61,15.66,12.14,36.78,3.25,60.35,14.75A44.44,44.44,0,0,1,548.81,189,43,43,0,0,1,556,212.78a43.84,43.84,0,0,1-33.77,42.42c-19.74,7.12-35.75.12-49.9,10.92-15.9,12.14-7.39,32.45-20.35,53.92a44.49,44.49,0,0,1-39.56,23.8c-24.52,0-44.41-19.56-44.41-43.69a43.64,43.64,0,0,1,25.64-39.6c23.56-11.5,44.68-2.61,60.35-14.75C463,238.79,464.9,228,464.9,214Z" transform="translate(-170.57 -80.21)"/></svg>